<mxfile host="app.diagrams.net" modified="2021-06-03T15:41:02.048Z" agent="5.0 (Macintosh; Intel Mac OS X 10_15_7) AppleWebKit/537.36 (KHTML, like Gecko) Chrome/90.0.4430.212 Safari/537.36" etag="iC5rHqnLJlyfbbXWSl0F" version="14.6.13" type="github">
  <diagram name="Page-1" id="13e1069c-82ec-6db2-03f1-153e76fe0fe0">
    <mxGraphModel dx="655" dy="381" grid="1" gridSize="10" guides="1" tooltips="1" connect="1" arrows="1" fold="1" page="1" pageScale="1" pageWidth="1100" pageHeight="850" background="#ffffff" math="0" shadow="0">
      <root>
        <mxCell id="0" />
        <mxCell id="1" parent="0" />
        <mxCell id="G0kBllWM4XBfNNBUBDi2-18" value=":Object" style="shape=umlLifeline;perimeter=lifelinePerimeter;whiteSpace=wrap;html=1;container=1;collapsible=0;recursiveResize=0;outlineConnect=0;" parent="1" vertex="1">
          <mxGeometry x="27" y="39" width="100" height="300" as="geometry" />
        </mxCell>
        <mxCell id="G0kBllWM4XBfNNBUBDi2-16" value="«actor»&lt;br&gt;&lt;b&gt;Admin&lt;/b&gt;" style="html=1;" parent="1" vertex="1">
          <mxGeometry x="2" y="39" width="150" height="40" as="geometry" />
        </mxCell>
        <mxCell id="G0kBllWM4XBfNNBUBDi2-21" value=":Object" style="shape=umlLifeline;perimeter=lifelinePerimeter;whiteSpace=wrap;html=1;container=1;collapsible=0;recursiveResize=0;outlineConnect=0;" parent="1" vertex="1">
          <mxGeometry x="197" y="40" width="148" height="299" as="geometry" />
        </mxCell>
        <mxCell id="G0kBllWM4XBfNNBUBDi2-22" value="«boundary»&lt;br&gt;&lt;b&gt;UserManageView&lt;/b&gt;" style="html=1;" parent="G0kBllWM4XBfNNBUBDi2-21" vertex="1">
          <mxGeometry width="150" height="40" as="geometry" />
        </mxCell>
        <mxCell id="G0kBllWM4XBfNNBUBDi2-32" value="" style="html=1;points=[];perimeter=orthogonalPerimeter;" parent="G0kBllWM4XBfNNBUBDi2-21" vertex="1">
          <mxGeometry x="70" y="60" width="10" height="100" as="geometry" />
        </mxCell>
        <mxCell id="G0kBllWM4XBfNNBUBDi2-26" value=":Object" style="shape=umlLifeline;perimeter=lifelinePerimeter;whiteSpace=wrap;html=1;container=1;collapsible=0;recursiveResize=0;outlineConnect=0;" parent="1" vertex="1">
          <mxGeometry x="397" y="39" width="150" height="300" as="geometry" />
        </mxCell>
        <mxCell id="G0kBllWM4XBfNNBUBDi2-27" value="«boundary»&lt;br&gt;&lt;b&gt;CoreView - MessageBox&lt;/b&gt;" style="html=1;" parent="G0kBllWM4XBfNNBUBDi2-26" vertex="1">
          <mxGeometry x="-15" width="168" height="40" as="geometry" />
        </mxCell>
        <mxCell id="G0kBllWM4XBfNNBUBDi2-28" value=":Object" style="shape=umlLifeline;perimeter=lifelinePerimeter;whiteSpace=wrap;html=1;container=1;collapsible=0;recursiveResize=0;outlineConnect=0;" parent="1" vertex="1">
          <mxGeometry x="577" y="40" width="170" height="300" as="geometry" />
        </mxCell>
        <mxCell id="G0kBllWM4XBfNNBUBDi2-29" value="«control»&lt;br&gt;&lt;b&gt;LevelController&lt;/b&gt;" style="html=1;" parent="G0kBllWM4XBfNNBUBDi2-28" vertex="1">
          <mxGeometry width="170" height="40" as="geometry" />
        </mxCell>
        <mxCell id="G0kBllWM4XBfNNBUBDi2-35" value="" style="html=1;points=[];perimeter=orthogonalPerimeter;" parent="G0kBllWM4XBfNNBUBDi2-28" vertex="1">
          <mxGeometry x="80" y="130" width="10" height="50" as="geometry" />
        </mxCell>
        <mxCell id="G0kBllWM4XBfNNBUBDi2-30" value=":Object" style="shape=umlLifeline;perimeter=lifelinePerimeter;whiteSpace=wrap;html=1;container=1;collapsible=0;recursiveResize=0;outlineConnect=0;" parent="1" vertex="1">
          <mxGeometry x="795" y="40" width="180" height="300" as="geometry" />
        </mxCell>
        <mxCell id="G0kBllWM4XBfNNBUBDi2-31" value="«entity»&lt;br&gt;&lt;b&gt;Entity: Teacher, LevelTeacher&amp;nbsp;&lt;/b&gt;" style="html=1;" parent="G0kBllWM4XBfNNBUBDi2-30" vertex="1">
          <mxGeometry x="-15" width="195" height="40" as="geometry" />
        </mxCell>
        <mxCell id="G0kBllWM4XBfNNBUBDi2-37" value="" style="html=1;points=[];perimeter=orthogonalPerimeter;" parent="G0kBllWM4XBfNNBUBDi2-30" vertex="1">
          <mxGeometry x="85" y="150" width="10" height="40" as="geometry" />
        </mxCell>
        <mxCell id="G0kBllWM4XBfNNBUBDi2-23" value="1: Chọn thêm Trình độ Giáo viên" style="html=1;verticalAlign=bottom;startArrow=oval;startFill=1;endArrow=block;startSize=8;" parent="1" target="G0kBllWM4XBfNNBUBDi2-21" edge="1">
          <mxGeometry width="60" relative="1" as="geometry">
            <mxPoint x="76.5" y="106" as="sourcePoint" />
            <mxPoint x="272" y="104" as="targetPoint" />
            <Array as="points">
              <mxPoint x="140" y="106" />
            </Array>
          </mxGeometry>
        </mxCell>
        <mxCell id="G0kBllWM4XBfNNBUBDi2-34" value="5 : Gửi thông tin Trình độ giáo viên&amp;nbsp;" style="html=1;verticalAlign=bottom;startArrow=oval;startFill=1;endArrow=block;startSize=8;entryX=-0.1;entryY=0.2;entryDx=0;entryDy=0;entryPerimeter=0;" parent="1" edge="1">
          <mxGeometry width="60" relative="1" as="geometry">
            <mxPoint x="250.00352941176465" y="189.57999999999998" as="sourcePoint" />
            <mxPoint x="654.6800000000002" y="189.57999999999998" as="targetPoint" />
          </mxGeometry>
        </mxCell>
        <mxCell id="G0kBllWM4XBfNNBUBDi2-36" value="6 : Cập nhật CSDL" style="html=1;verticalAlign=bottom;startArrow=oval;startFill=1;endArrow=block;startSize=8;exitX=0.8;exitY=0.39;exitDx=0;exitDy=0;exitPerimeter=0;" parent="1" edge="1" target="G0kBllWM4XBfNNBUBDi2-37">
          <mxGeometry width="60" relative="1" as="geometry">
            <mxPoint x="670" y="206.5" as="sourcePoint" />
            <mxPoint x="886.5000000000002" y="206.5" as="targetPoint" />
          </mxGeometry>
        </mxCell>
        <mxCell id="G0kBllWM4XBfNNBUBDi2-40" value="" style="html=1;points=[];perimeter=orthogonalPerimeter;" parent="1" vertex="1">
          <mxGeometry x="880" y="290" width="10" height="40" as="geometry" />
        </mxCell>
        <mxCell id="G0kBllWM4XBfNNBUBDi2-41" value="7 : Kiểm tra thông tin người dùng" style="edgeStyle=orthogonalEdgeStyle;html=1;align=left;spacingLeft=2;endArrow=block;rounded=0;exitX=1.058;exitY=0.553;exitDx=0;exitDy=0;exitPerimeter=0;" parent="1" source="G0kBllWM4XBfNNBUBDi2-37" edge="1">
          <mxGeometry relative="1" as="geometry">
            <mxPoint x="926.5000000000002" y="211.87999999999988" as="sourcePoint" />
            <Array as="points">
              <mxPoint x="920" y="212" />
              <mxPoint x="920" y="309" />
            </Array>
            <mxPoint x="885" y="309" as="targetPoint" />
          </mxGeometry>
        </mxCell>
        <mxCell id="DVAs7N8q5XkVekkUKqxM-1" value="2 : Kiểm tra trạng thái đăng nhập" style="html=1;verticalAlign=bottom;endArrow=open;dashed=1;endSize=8;" parent="1" target="G0kBllWM4XBfNNBUBDi2-18" edge="1">
          <mxGeometry relative="1" as="geometry">
            <mxPoint x="270" y="130" as="sourcePoint" />
            <mxPoint x="340" y="230" as="targetPoint" />
            <Array as="points">
              <mxPoint x="190" y="130" />
            </Array>
          </mxGeometry>
        </mxCell>
        <mxCell id="DVAs7N8q5XkVekkUKqxM-3" value="3 : Hiển thị Form&amp;nbsp;" style="html=1;verticalAlign=bottom;startArrow=oval;startFill=1;endArrow=block;startSize=8;dashed=1;" parent="1" edge="1">
          <mxGeometry width="60" relative="1" as="geometry">
            <mxPoint x="270" y="155" as="sourcePoint" />
            <mxPoint x="76.5" y="155" as="targetPoint" />
            <Array as="points">
              <mxPoint x="140" y="155" />
            </Array>
          </mxGeometry>
        </mxCell>
        <mxCell id="DVAs7N8q5XkVekkUKqxM-8" value="8 : Trả kết quả" style="html=1;verticalAlign=bottom;endArrow=open;dashed=1;endSize=8;exitX=-0.3;exitY=0.375;exitDx=0;exitDy=0;exitPerimeter=0;" parent="1" source="G0kBllWM4XBfNNBUBDi2-40" target="G0kBllWM4XBfNNBUBDi2-28" edge="1">
          <mxGeometry relative="1" as="geometry">
            <mxPoint x="844.5000000000002" y="317" as="sourcePoint" />
            <mxPoint x="690" y="317" as="targetPoint" />
          </mxGeometry>
        </mxCell>
        <mxCell id="DVAs7N8q5XkVekkUKqxM-9" value="9 : Thông báo kết quả" style="html=1;verticalAlign=bottom;endArrow=open;dashed=1;endSize=8;" parent="1" source="G0kBllWM4XBfNNBUBDi2-28" edge="1">
          <mxGeometry relative="1" as="geometry">
            <mxPoint x="630" y="327" as="sourcePoint" />
            <mxPoint x="470" y="327" as="targetPoint" />
          </mxGeometry>
        </mxCell>
        <mxCell id="fi9iXgLnPPmr7-ihQAsV-2" value="4 : Nhập thông tin Trình độ Giáo viên" style="html=1;verticalAlign=bottom;startArrow=oval;startFill=1;endArrow=block;startSize=8;" parent="1" source="G0kBllWM4XBfNNBUBDi2-18" edge="1" target="G0kBllWM4XBfNNBUBDi2-21">
          <mxGeometry width="60" relative="1" as="geometry">
            <mxPoint x="100" y="179.99999999999994" as="sourcePoint" />
            <mxPoint x="275.0000000000002" y="179.99999999999994" as="targetPoint" />
            <Array as="points">
              <mxPoint x="163.5" y="180" />
            </Array>
          </mxGeometry>
        </mxCell>
      </root>
    </mxGraphModel>
  </diagram>
</mxfile>
